<?xml version="1.0" standalone="no"?><!DOCTYPE svg PUBLIC "-//W3C//DTD SVG 1.1//EN" "http://www.w3.org/Graphics/SVG/1.1/DTD/svg11.dtd"><svg t="1574587307726" class="icon" viewBox="0 0 1024 1024" version="1.1" xmlns="http://www.w3.org/2000/svg" p-id="3385" xmlns:xlink="http://www.w3.org/1999/xlink" width="200" height="200"><defs><style type="text/css"></style></defs><path d="M864 64h-112a32 32 0 0 0-32 32v96h-96V96a32 32 0 0 0-32-32h-160a32 32 0 0 0-32 32v96H304.2V96a32 32 0 0 0-32-32H160A32 32 0 0 0 128 96v352l128 64c0 96.66-3.08 190-26.42 320h564.84C771.08 702 768 607.44 768 512l128-64V96a32 32 0 0 0-32-32zM576 640h-128v-128a64 64 0 0 1 128 0z m288 256H160a32 32 0 0 0-32 32v64a32 32 0 0 0 32 32h704a32 32 0 0 0 32-32v-64a32 32 0 0 0-32-32z" p-id="3386"></path></svg>