<svg width="191.261" height="49.9728" viewBox="0 0 179.307 46.8495" xmlns="http://www.w3.org/2000/svg" xmlns:xlink="http://www.w3.org/1999/xlink" id="svg2" overflow="hidden"><defs id="defs4"></defs><g id="layer1" transform="translate(-111.241 -261.102)"><g id="text4136" font-family="Arial" font-weight="400" font-size="40" transform="translate(0.464466 2.56859)"><path d="M167.604 268.158 167.604 289.318C167.604 290.171 167.777 290.771 168.124 291.118 168.471 291.438 169.084 291.598 169.964 291.598L179.564 291.598 179.764 295.478C177.151 295.718 173.497 295.838 168.804 295.838 164.671 295.838 162.604 293.931 162.604 290.118L162.604 268.158 167.604 268.158Z" id="path4175" fill="#A4A4A4" font-family="Exo 2 Semi Bold" font-weight="600"/><path d="M184.604 267.638 186.844 267.638C187.777 267.638 188.244 268.105 188.244 269.038L188.244 271.238C188.244 272.171 187.777 272.638 186.844 272.638L184.604 272.638C183.671 272.638 183.204 272.171 183.204 271.238L183.204 269.038C183.204 268.105 183.671 267.638 184.604 267.638ZM188.164 295.758 183.324 295.758 183.324 276.158 188.164 276.158 188.164 295.758Z" id="path4177" fill="#A4A4A4" font-family="Exo 2 Semi Bold" font-weight="600"/><path d="M198.565 267.758 198.565 274.358C198.565 276.251 198.405 277.771 198.085 278.918 200.165 276.705 202.565 275.598 205.285 275.598 207.765 275.598 209.578 276.398 210.725 277.998 211.871 279.598 212.445 282.211 212.445 285.838 212.445 289.251 211.765 291.838 210.405 293.598 209.071 295.358 206.685 296.238 203.245 296.238 201.725 296.238 200.045 296.105 198.205 295.838 196.365 295.598 194.858 295.238 193.685 294.758L193.685 267.758 198.565 267.758ZM198.565 281.878 198.565 291.878C200.111 292.251 201.631 292.411 203.125 292.358 204.698 292.331 205.805 291.851 206.445 290.918 207.085 289.985 207.418 288.291 207.445 285.838 207.418 283.438 207.151 281.811 206.645 280.958 206.138 280.105 205.071 279.678 203.445 279.678 202.645 279.678 201.898 279.851 201.205 280.198 200.511 280.545 199.631 281.105 198.565 281.878Z" id="path4179" fill="#A4A4A4" font-family="Exo 2 Semi Bold" font-weight="600"/><path d="M230.284 275.598 229.764 280.158 228.364 280.158C226.978 280.158 224.818 280.745 221.884 281.918L221.884 295.758 217.004 295.758 217.004 276.158 220.804 276.158 221.244 279.038C224.044 276.745 226.738 275.598 229.324 275.598L230.284 275.598Z" id="path4181" fill="#A4A4A4" font-family="Exo 2 Semi Bold" font-weight="600"/><path d="M245.484 287.998 237.484 287.998C237.671 289.705 238.151 290.851 238.924 291.438 239.697 291.998 240.964 292.278 242.724 292.278 244.724 292.278 247.071 292.118 249.764 291.798L250.204 294.918C248.364 295.798 245.671 296.238 242.124 296.238 238.577 296.238 236.057 295.451 234.564 293.878 233.071 292.305 232.324 289.651 232.324 285.918 232.324 282.105 233.057 279.438 234.524 277.918 235.991 276.371 238.417 275.598 241.804 275.598 244.924 275.598 247.191 276.171 248.604 277.318 250.017 278.438 250.724 280.131 250.724 282.398 250.724 286.131 248.977 287.998 245.484 287.998ZM237.404 284.598 244.124 284.598C245.297 284.598 245.884 283.838 245.884 282.318 245.884 281.251 245.604 280.505 245.044 280.078 244.484 279.651 243.471 279.438 242.004 279.438 240.297 279.438 239.111 279.798 238.444 280.518 237.804 281.211 237.457 282.571 237.404 284.598Z" id="path4183" fill="#A4A4A4" font-family="Exo 2 Semi Bold" font-weight="600"/><path d="M265.884 267.638C270.151 267.638 273.111 268.665 274.764 270.718 276.444 272.771 277.284 276.518 277.284 281.958 277.284 287.398 276.444 291.145 274.764 293.198 273.111 295.251 270.151 296.278 265.884 296.278 261.644 296.278 258.684 295.251 257.004 293.198 255.351 291.145 254.524 287.398 254.524 281.958 254.524 276.518 255.351 272.771 257.004 270.718 258.684 268.665 261.644 267.638 265.884 267.638ZM265.884 271.918C263.564 271.918 261.964 272.638 261.084 274.078 260.231 275.491 259.804 278.118 259.804 281.958 259.804 285.798 260.231 288.438 261.084 289.878 261.964 291.291 263.564 291.998 265.884 291.998 268.231 291.998 269.831 291.291 270.684 289.878 271.564 288.438 272.004 285.798 272.004 281.958 272.004 278.118 271.564 275.491 270.684 274.078 269.831 272.638 268.231 271.918 265.884 271.918Z" id="path4185" fill="#A4A4A4" font-family="Exo 2 Semi Bold" font-weight="600"/><path d="M290.084 268.158 290.084 289.678C290.084 291.785 289.577 293.398 288.564 294.518 287.577 295.638 286.164 296.198 284.324 296.198 282.537 296.198 281.07 295.971 279.924 295.518L280.444 292.038 282.324 292.038C284.19 292.038 285.124 291.211 285.124 289.558L285.124 268.158 290.084 268.158Z" id="path4187" fill="#A4A4A4" font-family="Exo 2 Semi Bold" font-weight="600"/></g><path d="M135.414 261.486 122.931 270.226 115.371 275.519 111.59 278.168 115.371 280.816 135.414 294.851 135.414 292.029 119.404 280.818 115.621 278.17 119.404 275.521 126.965 270.228 135.414 264.31 135.414 261.486Z" id="rect4219" stroke="#000000" stroke-width="0.4" fill="#A4A4A4"/><path d="M127.386 274.202 139.869 282.942 147.429 288.235 151.21 290.884 147.429 293.532 127.386 307.567 127.386 304.745 143.396 293.534 147.179 290.885 143.396 288.237 135.835 282.944 127.386 277.026 127.386 274.202Z" id="rect4219-7" stroke="#000000" stroke-width="0.4" fill="#A4A4A4"/></g></svg>